<?xml version="1.0" encoding="utf-8"?>
<!-- Generator: Adobe Illustrator 25.4.1, SVG Export Plug-In . SVG Version: 6.00 Build 0)  -->
<svg version="1.1" id="Capa_2" xmlns="http://www.w3.org/2000/svg" xmlns:xlink="http://www.w3.org/1999/xlink" x="0px" y="0px"
	 viewBox="0 0 1366 372" style="enable-background:new 0 0 1366 372;" xml:space="preserve">
<style type="text/css">
	.st0{fill:#61758C;stroke:#FFFFFF;}
	.st1{fill:#61758C;}
	.st2{stroke:#FFFFFF;}
	.st3{fill:#FFFFFF;}
	.st4{fill:#FFFFFF;stroke:#FFFFFF;}
</style>
<rect width="1366" height="372"/>
<g>
	<path class="st3" d="M483.14,218.13v5.2h-24.25v-5.2h8.85l-5.58-18.19h-26.85l-5.58,18.19h8.76v5.2h-23v-5.2h7.51l21.85-67.56h9.05
		l21.85,67.56H483.14z M460.71,195.42l-12.03-39.26l-12.03,39.26H460.71z"/>
	<path class="st3" d="M508.91,218.33v5.01h-19.92v-5.01h6.45v-62.17h-6.45v-5.01h13.38v67.17H508.91z"/>
	<path class="st3" d="M564.73,200.81H524.5c0.77,11.16,7.6,19.15,16.55,19.15c7.51,0,13.76-5.2,15.78-12.8h7.31
		c-2.5,10.97-11.16,18.09-22.9,18.09c-14.34,0-24.25-11.36-24.25-26.27c0-14.92,9.91-26.27,24.25-26.27
		c14.34,0,23.48,10.97,23.48,25.89V200.81z M524.5,196.19h33.01c-0.86-10.68-7.8-18.48-16.46-18.48
		C532.1,177.71,525.36,185.41,524.5,196.19z"/>
	<path class="st3" d="M575.97,242.29c-2.12,0-3.95-0.19-5.2-0.48v-5.2c0.77,0.1,1.83,0.19,2.69,0.19c3.75,0,4.43-1.73,4.43-4.52
		v-52.64h-7.02v-5h13.95v59.28C584.83,239.69,582.23,242.29,575.97,242.29z M571.35,158.66c0-2.69,2.12-4.72,5.49-4.72
		s5.39,2.02,5.39,4.72c0,2.6-2.02,4.62-5.39,4.62S571.35,161.26,571.35,158.66z"/>
	<path class="st3" d="M641.89,218.33v5.2h-13.47v-6.16c-2.89,3.56-8.85,7.89-17.42,7.89c-9.91,0-16.46-4.91-16.46-14.44
		c0-9.72,7.51-15.2,22.23-15.2h11.64v-4.04c0-9.24-4.24-13.38-12.32-13.38c-8.08,0-12.61,4.43-12.8,10.68v0.87h-6.83v-1.06
		c0-9.34,7.12-15.88,20.02-15.88c13.18,0,18.86,6.45,18.86,18.48v27.04H641.89z M628.42,211.21v-11.64h-10.3
		c-11.64,0-16.36,4.14-16.36,10.58c0,6.26,4.52,10.01,12.03,10.01C622.65,220.16,626.88,214.57,628.42,211.21z"/>
	<path class="st3" d="M701.36,218.33v5.01h-19.25v-5.01h5.87v-26.75c0-8.66-4.24-13.67-11.36-13.67c-7.99,0-13.86,5.77-13.86,13.67
		v26.75h5.97v5.01h-19.34v-5.01h6.45v-38.69h-6.45v-5h13.38v6.83c3.08-5.58,9.53-8.76,16.27-8.76c9.53,0,15.88,6.74,15.88,16.75
		v28.87H701.36z"/>
	<path class="st3" d="M761.49,218.33v5.01h-13.47v-6.25c-2.98,4.62-9.24,8.18-16.26,8.18c-12.13,0-22.33-10.97-22.33-26.27
		c0-15.4,10.1-26.27,22.33-26.27c7.02,0,13.28,3.56,16.26,8.18v-25.02h-7.02v-4.72h13.95v67.17H761.49z M748.02,205.72v-13.47
		c0-7.6-6.35-13.76-14.44-13.76c-9.43,0-16.75,9.05-16.75,20.5c0,11.36,7.41,20.59,16.75,20.59
		C741.67,219.58,748.02,213.32,748.02,205.72z"/>
	<path class="st3" d="M799.4,173.19v5.87c-0.77-0.19-2.12-0.58-3.85-0.58c-8.37,0-13.19,6.83-13.19,17.9v21.94h8.37v5.01h-21.75
		v-5.01h6.45v-38.69h-6.45v-5h13.38v6.54c2.5-4.91,7.8-8.47,13.57-8.47C797.47,172.71,798.92,173,799.4,173.19z"/>
	<path class="st3" d="M852.42,198.98c0,15.2-10.01,26.27-24.06,26.27c-13.95,0-24.06-11.07-24.06-26.27
		c0-15.21,10.1-26.27,24.06-26.27C842.41,172.71,852.42,183.78,852.42,198.98z M845.1,198.98c0-12.22-7.22-20.88-16.75-20.88
		c-9.43,0-16.65,8.66-16.65,20.88c0,12.12,7.22,20.98,16.65,20.98C837.89,219.96,845.1,211.21,845.1,198.98z"/>
	<path class="st3" d="M946.23,191.67v4.43h-5.1v27.24h-4.81l-0.67-13.86c-4.14,9.72-12.7,15.78-23.77,15.78
		c-19.92,0-30.12-16.75-30.12-38.11c0-21.07,10.49-37.92,30.02-37.92c11.55,0,18.29,6.06,22.33,13.57l0.77-11.64h5.01v20.31h-7.32
		c-3.18-9.91-9.43-15.97-19.54-15.97c-15.11,0-23.1,14.24-23.1,31.66S898.02,219,913.32,219c11.16,0,20.59-7.89,20.98-22.9h-14.24
		v-4.43H946.23z"/>
	<path class="st3" d="M1001.07,198.98c0,15.2-10.01,26.27-24.06,26.27c-13.95,0-24.06-11.07-24.06-26.27
		c0-15.21,10.1-26.27,24.06-26.27C991.07,172.71,1001.07,183.78,1001.07,198.98z M993.76,198.98c0-12.22-7.22-20.88-16.75-20.88
		c-9.43,0-16.65,8.66-16.65,20.88c0,12.12,7.22,20.98,16.65,20.98C986.54,219.96,993.76,211.21,993.76,198.98z"/>
	<path class="st3" d="M1061.12,218.33v5.01h-19.25v-5.01h5.87v-26.75c0-8.66-4.24-13.67-11.36-13.67c-7.99,0-13.86,5.77-13.86,13.67
		v26.75h5.97v5.01h-19.34v-5.01h6.45v-38.69h-6.45v-5h13.38v6.83c3.08-5.58,9.53-8.76,16.27-8.76c9.53,0,15.88,6.74,15.88,16.75
		v28.87H1061.12z"/>
	<path class="st3" d="M1107.3,209.47v13.86h-38.78v-3.37l29.45-41.28h-20.21c-3.27,0-4.14,1.25-4.14,5.39v3.37h-3.94v-12.8h36.38
		v3.27l-29.35,41.48h22.33c3.27,0,4.33-1.44,4.33-5.68v-4.23H1107.3z"/>
	<path class="st3" d="M1163.88,218.33v5.2h-13.47v-6.16c-2.89,3.56-8.85,7.89-17.42,7.89c-9.91,0-16.46-4.91-16.46-14.44
		c0-9.72,7.51-15.2,22.23-15.2h11.64v-4.04c0-9.24-4.24-13.38-12.32-13.38c-8.08,0-12.61,4.43-12.8,10.68v0.87h-6.83v-1.06
		c0-9.34,7.12-15.88,20.02-15.88c13.18,0,18.86,6.45,18.86,18.48v27.04H1163.88z M1150.4,211.21v-11.64h-10.3
		c-11.64,0-16.36,4.14-16.36,10.58c0,6.26,4.52,10.01,12.03,10.01C1144.63,220.16,1148.86,214.57,1150.4,211.21z M1136.35,168.09
		h-5.1l12.7-16.94h6.45L1136.35,168.09z"/>
	<path class="st3" d="M1191.29,218.33v5.01h-19.92v-5.01h6.45v-62.17h-6.45v-5.01h13.38v67.17H1191.29z"/>
	<path class="st3" d="M1247.1,200.81h-40.23c0.77,11.16,7.6,19.15,16.55,19.15c7.51,0,13.76-5.2,15.78-12.8h7.31
		c-2.5,10.97-11.16,18.09-22.9,18.09c-14.34,0-24.25-11.36-24.25-26.27c0-14.92,9.91-26.27,24.25-26.27
		c14.34,0,23.48,10.97,23.48,25.89V200.81z M1206.88,196.19h33.01c-0.86-10.68-7.8-18.48-16.46-18.48
		C1214.48,177.71,1207.74,185.41,1206.88,196.19z"/>
	<path class="st3" d="M1293,209.47v13.86h-38.78v-3.37l29.45-41.28h-20.21c-3.27,0-4.14,1.25-4.14,5.39v3.37h-3.94v-12.8h36.38v3.27
		l-29.35,41.48h22.33c3.27,0,4.33-1.44,4.33-5.68v-4.23H1293z"/>
</g>
<g>
	<path class="st3" d="M260.21,300.69h-12.22v-36.77h-6.46v36.77h-35.98v-36.77h-6.52v36.77h-12.54c-1.82,0-3.3,1.48-3.3,3.3v0.24
		c0,1.82,1.48,3.3,3.3,3.3h73.72c1.82,0,3.3-1.48,3.3-3.3v-0.24C263.51,302.17,262.03,300.69,260.21,300.69z"/>
	<g>
		<path class="st4" d="M350.48,83.98H96.22C90.02,83.98,85,89,85,95.2v164.53c0,6.2,5.02,11.22,11.22,11.22h254.27
			c6.2,0,11.22-5.02,11.22-11.22V95.2C361.7,89,356.68,83.98,350.48,83.98z M351.99,255.98c0,3.1-2.51,5.61-5.61,5.61H100.33
			c-3.1,0-5.61-2.51-5.61-5.61V98.93c0-3.1,2.51-5.61,5.61-5.61h246.05c3.1,0,5.61,2.51,5.61,5.61V255.98z"/>
		<g>
			<path class="st3" d="M189.32,152.77l-53.43,22.37l53.49,23.59c1.17,0.52,1.93,1.68,1.93,2.96v0c0,2.36-2.44,3.93-4.58,2.95
				L131,179.21c-1.15-0.53-1.89-1.68-1.89-2.95v-2.33c0-1.29,0.77-2.46,1.95-2.97l55.72-24.21c2.14-0.93,4.53,0.64,4.53,2.97v0.06
				C191.31,151.09,190.52,152.26,189.32,152.77z"/>
			<path class="st3" d="M243.36,120.27L243.36,120.27c2.85,0,4.77,2.93,3.62,5.54l-44.66,101.81c-0.63,1.44-2.05,2.37-3.62,2.37
				h-0.01c-2.85,0-4.77-2.93-3.62-5.54l44.67-101.81C240.37,121.2,241.79,120.27,243.36,120.27z"/>
			<path class="st3" d="M256.6,198.65l53.43-22.37l-53.49-23.59c-1.17-0.52-1.93-1.68-1.93-2.96v0c0-2.36,2.44-3.93,4.58-2.95
				l55.72,25.43c1.15,0.53,1.89,1.68,1.89,2.95v2.33c0,1.29-0.77,2.46-1.95,2.97l-55.72,24.21c-2.14,0.93-4.53-0.64-4.53-2.97v-0.06
				C254.61,200.33,255.4,199.15,256.6,198.65z"/>
		</g>
	</g>
</g>
</svg>
